<?xml version="1.0" encoding="UTF-8"?>
<svg version="1.1" xmlns="http://www.w3.org/2000/svg" width="259" height="194">
<path d="M0 0 C85.47 0 170.94 0 259 0 C259 64.02 259 128.04 259 194 C173.53 194 88.06 194 0 194 C0 129.98 0 65.96 0 0 Z " fill="#FEFEFE" transform="translate(0,0)"/>
<path d="M0 0 C2.97 0 5.94 0 9 0 C14.445 14.85 14.445 14.85 20 30 C20.33 22.74 20.66 15.48 21 8 C22.98 8 24.96 8 27 8 C27.495 9.485 27.495 9.485 28 11 C28.474375 10.484375 28.94875 9.96875 29.4375 9.4375 C32.82439242 7.53753596 35.10109297 7.92202749 38.87890625 8.28515625 C41.72679547 9.24494212 42.4506755 10.45027481 44 13 C44.34057617 15.47363281 44.34057617 15.47363281 44.29296875 18.203125 C44.2784668 19.67265625 44.2784668 19.67265625 44.26367188 21.171875 C44.23853516 22.18765625 44.21339844 23.2034375 44.1875 24.25 C44.16719727 25.796875 44.16719727 25.796875 44.14648438 27.375 C44.11117607 29.91719792 44.06186036 32.45833223 44 35 C42.02 35 40.04 35 38 35 C37.970271 34.15236084 37.970271 34.15236084 37.93994141 33.28759766 C37.84481764 30.73292003 37.73508942 28.17907459 37.625 25.625 C37.5940625 24.73554687 37.563125 23.84609375 37.53125 22.9296875 C37.47324219 21.65351562 37.47324219 21.65351562 37.4140625 20.3515625 C37.3826416 19.56604004 37.3512207 18.78051758 37.31884766 17.97119141 C37.1600535 15.76997061 37.1600535 15.76997061 35 14 C33.02 14.33 31.04 14.66 29 15 C28.67 21.6 28.34 28.2 28 35 C23.38 35 18.76 35 14 35 C12 31 12 31 12 26 C7.38 26.33 2.76 26.66 -2 27 C-2.99 29.64 -3.98 32.28 -5 35 C-7.31 35 -9.62 35 -12 35 C-9.76946204 27.16596949 -7.10146508 19.52574949 -4.3125 11.875 C-3.89677734 10.72773437 -3.48105469 9.58046875 -3.05273438 8.3984375 C-2.03759802 5.59806135 -1.01997571 2.79861634 0 0 Z " fill="#F71793" transform="translate(93,78)"/>
<path d="M0 0 C2.375 1.375 2.375 1.375 4 3 C4 3.66 4 4.32 4 5 C4.66 5 5.32 5 6 5 C6 3.68 6 2.36 6 1 C7.65 1 9.3 1 11 1 C11.12403121 5.18080601 11.21453601 9.36062502 11.2746582 13.54272461 C11.29973147 14.96381291 11.33379999 16.38477313 11.37719727 17.80541992 C11.43817858 19.85367462 11.46627762 21.90021883 11.48828125 23.94921875 C11.51446533 25.17987061 11.54064941 26.41052246 11.56762695 27.6784668 C10.84514806 31.90613361 9.26907893 33.32647361 6 36 C2.29174653 37.85412674 -1.95311265 37.45790469 -6 37 C-8.6169064 35.96349982 -9.88099117 34.95171866 -12 33 C-12 32.01 -12 31.02 -12 30 C-9.625 29.375 -9.625 29.375 -7 29 C-6.34 29.66 -5.68 30.32 -5 31 C-2.28545044 31.32752234 0.25230759 31.1308425 3 31 C4.35618499 29.87465895 4.35618499 29.87465895 4.0625 26.9375 C4.041875 25.968125 4.02125 24.99875 4 24 C3.34 24.66 2.68 25.32 2 26 C-2.5370992 26.76658258 -6.04453215 26.57726182 -10 24.1875 C-13.79797011 20.03347019 -13.38537078 15.32906603 -13.359375 9.9609375 C-12.8197367 5.51478712 -11.31423102 3.9196797 -8 1 C-5.19084526 -0.40457737 -3.11189466 -0.24895157 0 0 Z " fill="#E328DE" transform="translate(152,86)"/>
<path d="M0 0 C4.54054054 2.08108108 4.54054054 2.08108108 6 5 C6.08400529 6.59447464 6.10727467 8.19240545 6.09765625 9.7890625 C6.09443359 10.73007813 6.09121094 11.67109375 6.08789062 12.640625 C6.07951172 13.62546875 6.07113281 14.6103125 6.0625 15.625 C6.05798828 16.61757812 6.05347656 17.61015625 6.04882812 18.6328125 C6.03702145 21.0886016 6.020554 23.54427104 6 26 C4.35 26 2.7 26 1 26 C0.67 25.34 0.34 24.68 0 24 C-0.495 24.495 -0.99 24.99 -1.5 25.5 C-5.0072421 27.60434526 -8.00400256 27.7205897 -12 27 C-14.5 25.4375 -14.5 25.4375 -16 23 C-16.53686673 19.24193286 -16.57575249 17.01442106 -14.6875 13.6875 C-10.47790773 11.04426764 -5.87210005 10.63841311 -1 10 C-1 8.68 -1 7.36 -1 6 C-4.41656024 5.83322718 -4.41656024 5.83322718 -8 6 C-8.66 6.66 -9.32 7.32 -10 8 C-12.625 8.125 -12.625 8.125 -15 8 C-14.69025617 5.10905762 -13.95829554 3.95308249 -12 1.75 C-7.92438264 -0.62744346 -4.61638006 -0.71085563 0 0 Z " fill="#9F05F8" transform="translate(214,86)"/>
<path d="M0 0 C1.98 0 3.96 0 6 0 C6.33 0.99 6.66 1.98 7 3 C7.7115625 2.2265625 7.7115625 2.2265625 8.4375 1.4375 C11.82439242 -0.46246404 14.10109297 -0.07797251 17.87890625 0.28515625 C20.72679547 1.24494212 21.4506755 2.45027481 23 5 C23.34057617 7.47363281 23.34057617 7.47363281 23.29296875 10.203125 C23.28330078 11.1828125 23.27363281 12.1625 23.26367188 13.171875 C23.23853516 14.18765625 23.21339844 15.2034375 23.1875 16.25 C23.16719727 17.796875 23.16719727 17.796875 23.14648438 19.375 C23.11117607 21.91719792 23.06186036 24.45833223 23 27 C21.02 27 19.04 27 17 27 C16.98018066 26.43490723 16.96036133 25.86981445 16.93994141 25.28759766 C16.84481764 22.73292003 16.73508942 20.17907459 16.625 17.625 C16.5940625 16.73554687 16.563125 15.84609375 16.53125 14.9296875 C16.49257812 14.07890625 16.45390625 13.228125 16.4140625 12.3515625 C16.36693115 11.17327881 16.36693115 11.17327881 16.31884766 9.97119141 C16.1600535 7.76997061 16.1600535 7.76997061 14 6 C12.02 6.33 10.04 6.66 8 7 C7.67 13.6 7.34 20.2 7 27 C2.38 27 -2.24 27 -7 27 C-7 26.67 -7 26.34 -7 26 C-5.02 25.67 -3.04 25.34 -1 25 C-0.67 16.75 -0.34 8.5 0 0 Z " fill="#EE2BD5" transform="translate(114,86)"/>
<path d="M0 0 C2.31 0 4.62 0 7 0 C7.02505615 0.57032959 7.0501123 1.14065918 7.07592773 1.72827148 C7.19156549 4.29826157 7.31443624 6.86785527 7.4375 9.4375 C7.47681641 10.33533203 7.51613281 11.23316406 7.55664062 12.15820312 C7.59853516 13.01220703 7.64042969 13.86621094 7.68359375 14.74609375 C7.72025146 15.53685303 7.75690918 16.3276123 7.79467773 17.14233398 C7.80563257 19.01401441 7.80563257 19.01401441 9 20 C12 20.16666667 12 20.16666667 15 20 C16.51421001 18.48578999 16.21309856 17.07527232 16.31640625 14.96484375 C16.35830078 14.15595703 16.40019531 13.34707031 16.44335938 12.51367188 C16.48267578 11.66353516 16.52199219 10.81339844 16.5625 9.9375 C16.60568359 9.08349609 16.64886719 8.22949219 16.69335938 7.34960938 C16.79976702 5.23327963 16.90041731 3.11666187 17 1 C18.98 1 20.96 1 23 1 C23 9.25 23 17.5 23 26 C21.35 26 19.7 26 18 26 C17.67 25.01 17.34 24.02 17 23 C16.29875 23.66 15.5975 24.32 14.875 25 C12 27 12 27 9 27.5625 C5.00495082 26.81342828 3.56117861 25.07341433 1 22 C-0.20029908 19.59940183 -0.11459743 18.10639351 -0.09765625 15.4296875 C-0.09443359 14.53378906 -0.09121094 13.63789062 -0.08789062 12.71484375 C-0.07951172 11.77769531 -0.07113281 10.84054688 -0.0625 9.875 C-0.05798828 8.93011719 -0.05347656 7.98523438 -0.04882812 7.01171875 C-0.03702357 4.67441613 -0.02055759 2.33723939 0 0 Z " fill="#CE28E7" transform="translate(165,86)"/>
<path d="M0 0 C1.32 0.66 2.64 1.32 4 2 C4 2.66 4 3.32 4 4 C4.66 4 5.32 4 6 4 C6 2.68 6 1.36 6 0 C7.65 0 9.3 0 11 0 C11.12403121 4.18080601 11.21453601 8.36062502 11.2746582 12.54272461 C11.29973147 13.96381291 11.33379999 15.38477313 11.37719727 16.80541992 C11.43817858 18.85367462 11.46627762 20.90021883 11.48828125 22.94921875 C11.51446533 24.17987061 11.54064941 25.41052246 11.56762695 26.6784668 C10.84514806 30.90613361 9.26907893 32.32647361 6 35 C2.29174653 36.85412674 -1.95311265 36.45790469 -6 36 C-8.6169064 34.96349982 -9.88099117 33.95171866 -12 32 C-12 31.01 -12 30.02 -12 29 C-9.625 28.375 -9.625 28.375 -7 28 C-6.34 28.66 -5.68 29.32 -5 30 C-3.09178939 30.35513379 -3.09178939 30.35513379 -1 30.3125 C0.051875 30.33763672 0.051875 30.33763672 1.125 30.36328125 C1.74375 30.24339844 2.3625 30.12351562 3 30 C5.80242726 25.79635911 5.14056476 22.53794806 4.875 17.625 C4.85179687 16.77421875 4.82859375 15.9234375 4.8046875 15.046875 C4.53770815 9.69060182 3.76809135 7.0404835 0 3 C0 2.01 0 1.02 0 0 Z " fill="#D613E4" transform="translate(152,87)"/>
<path d="M0 0 C4.35970831 1.34849837 8.31341438 3.04907846 12.375 5.125 C13.43460938 5.66382812 14.49421875 6.20265625 15.5859375 6.7578125 C16.38257812 7.16773437 17.17921875 7.57765625 18 8 C18.10234659 17.06335876 18.06996173 25.98175113 17 35 C13.80586646 31.27186271 12.1065385 27.02445048 10.1875 22.5625 C9.48384584 20.9514851 8.77941174 19.34081065 8.07421875 17.73046875 C7.55287354 16.53623291 7.55287354 16.53623291 7.02099609 15.31787109 C4.75663142 10.17729764 2.37436336 5.09049114 0 0 Z " fill="#FD1A89" transform="translate(52,71)"/>
<path d="M0 0 C0 3.75239538 -1.17688719 5.87989823 -2.7734375 9.27734375 C-3.05724274 9.88510147 -3.34104797 10.49285919 -3.63345337 11.11903381 C-4.54196042 13.06107939 -5.45841555 14.99925571 -6.375 16.9375 C-6.98488817 18.23869188 -7.59426901 19.54012169 -8.203125 20.84179688 C-12.8324359 30.72040011 -12.8324359 30.72040011 -15 35 C-15.33 35 -15.66 35 -16 35 C-16.33 26.09 -16.66 17.18 -17 8 C-14.751875 6.865625 -12.50375 5.73125 -10.1875 4.5625 C-9.48391357 4.20615479 -8.78032715 3.84980957 -8.05541992 3.48266602 C-5.39328479 2.1456724 -2.83009406 0.94336469 0 0 Z " fill="#FB060F" transform="translate(39,71)"/>
<path d="M0 0 C2.31 0 4.62 0 7 0 C7 11.88 7 23.76 7 36 C4.69 36 2.38 36 0 36 C0 24.12 0 12.24 0 0 Z " fill="#BF2DF1" transform="translate(190,77)"/>
<path d="M0 0 C2.97 0 5.94 0 9 0 C9.83739781 2.1234016 10.66980283 4.2487728 11.5 6.375 C11.9640625 7.55835937 12.428125 8.74171875 12.90625 9.9609375 C14 13 14 13 14 15 C11.03 14.505 11.03 14.505 8 14 C8.33 16.31 8.66 18.62 9 21 C6.03 21 3.06 21 0 21 C1.875 12.25 1.875 12.25 3 10 C0.53199953 11.15173355 -1.04783565 12.04783565 -3 14 C-4.25955231 10.22134307 -3.48087189 8.96588214 -2.0625 5.3125 C-1.68222656 4.31863281 -1.30195312 3.32476562 -0.91015625 2.30078125 C-0.60980469 1.54152344 -0.30945313 0.78226562 0 0 Z " fill="#FB34CF" transform="translate(93,78)"/>
<path d="M0 0 C0.87454834 0.00523682 1.74909668 0.01047363 2.65014648 0.01586914 C3.59438477 0.0190918 4.53862305 0.02231445 5.51147461 0.02563477 C6.50469727 0.03401367 7.49791992 0.04239258 8.52124023 0.05102539 C9.51833008 0.05553711 10.51541992 0.06004883 11.54272461 0.06469727 C14.01478872 0.07652532 16.48673541 0.0930069 18.95874023 0.11352539 C19.61874023 2.09352539 20.27874023 4.07352539 20.95874023 6.11352539 C19.07714589 7.34391403 17.17781097 8.54720616 15.27124023 9.73852539 C13.68762695 10.74786133 13.68762695 10.74786133 12.07202148 11.77758789 C8.95874023 13.11352539 8.95874023 13.11352539 6.33374023 12.48852539 C5.54999023 12.03477539 4.76624023 11.58102539 3.95874023 11.11352539 C3.22010742 10.68813477 2.48147461 10.26274414 1.72045898 9.82446289 C1.0359668 9.38360352 0.35147461 8.94274414 -0.35375977 8.48852539 C-1.05114258 8.04250977 -1.74852539 7.59649414 -2.46704102 7.13696289 C-2.9865332 6.79922852 -3.50602539 6.46149414 -4.04125977 6.11352539 C-2.97364397 0.16538027 -2.97364397 0.16538027 0 0 Z " fill="#FD0633" transform="translate(38.041259765625,108.886474609375)"/>
<path d="M0 0 C1.98 0 3.96 0 6 0 C6.33 0.99 6.66 1.98 7 3 C7.391875 2.505 7.78375 2.01 8.1875 1.5 C10.55091715 -0.45593143 12.01435003 -0.24207973 15 0 C15 1.65 15 3.3 15 5 C14.030625 5.309375 13.06125 5.61875 12.0625 5.9375 C9.15934208 6.69523342 9.15934208 6.69523342 8 8 C7.84379445 9.41327947 7.74943827 10.8335459 7.68359375 12.25390625 C7.64169922 13.10791016 7.59980469 13.96191406 7.55664062 14.84179688 C7.49766602 16.18854492 7.49766602 16.18854492 7.4375 17.5625 C7.39431641 18.46419922 7.35113281 19.36589844 7.30664062 20.29492188 C7.20021858 22.52978485 7.09820012 24.76476308 7 27 C4.69 27 2.38 27 0 27 C0 18.09 0 9.18 0 0 Z " fill="#9D1CF8" transform="translate(222,86)"/>
<path d="M0 0 C1.98 0 3.96 0 6 0 C8.22831569 4.03882219 8.01114539 7.15627178 7.78125 11.66796875 C7.73613281 12.56064453 7.69101563 13.45332031 7.64453125 14.37304688 C7.57298828 15.76620117 7.57298828 15.76620117 7.5 17.1875 C7.45230469 18.12787109 7.40460938 19.06824219 7.35546875 20.03710938 C7.2376516 22.35810715 7.11891376 24.67905815 7 27 C2.38 27 -2.24 27 -7 27 C-7 26.67 -7 26.34 -7 26 C-5.02 25.67 -3.04 25.34 -1 25 C-0.67 16.75 -0.34 8.5 0 0 Z " fill="#F138C0" transform="translate(114,86)"/>
<path d="M0 0 C0.80824219 0.10183594 1.61648437 0.20367187 2.44921875 0.30859375 C3.06410156 0.39238281 3.67898437 0.47617188 4.3125 0.5625 C3.9825 1.2225 3.6525 1.8825 3.3125 2.5625 C3.6425 2.5625 3.9725 2.5625 4.3125 2.5625 C4.5625 5.375 4.5625 5.375 4.3125 8.5625 C2.625 10.5 2.625 10.5 0.3125 11.5625 C-2.38559776 11.30553831 -4.27100693 10.77074654 -6.6875 9.5625 C-6.3575 11.5425 -6.0275 13.5225 -5.6875 15.5625 C-10.5625 13.8125 -10.5625 13.8125 -11.6875 11.5625 C-12.26551822 5.31990319 -12.26551822 5.31990319 -9.875 2.1875 C-6.4327274 -0.36961679 -4.10893144 -0.53594758 0 0 Z " fill="#B512F2" transform="translate(209.6875,97.4375)"/>
<path d="M0 0 C1.98 0 3.96 0 6 0 C6 8.25 6 16.5 6 25 C4.35 25 2.7 25 1 25 C0.67 24.01 0.34 23.02 0 22 C-0.99 22.66 -1.98 23.32 -3 24 C-3.33 23.34 -3.66 22.68 -4 22 C-6.01669827 20.86649466 -6.01669827 20.86649466 -8 20 C-5.69 19.34 -3.38 18.68 -1 18 C-0.505 9.09 -0.505 9.09 0 0 Z " fill="#BE12EB" transform="translate(182,87)"/>
<path d="M0 0 C2.875 0.9375 2.875 0.9375 4.875 3.9375 C5.41473013 10.7380997 5.41473013 10.7380997 3.75 14.4375 C1.875 15.9375 1.875 15.9375 -1.125 16.4375 C-4.125 15.9375 -4.125 15.9375 -6 14.4375 C-7.6002025 10.88149444 -7.82273981 7.77114906 -7.125 3.9375 C-4.95718013 0.51901483 -4.06954085 -0.08139082 0 0 Z " fill="#FDF9FD" transform="translate(152.125,91.0625)"/>
<path d="M0 0 C2.75 -0.125 2.75 -0.125 6 1 C7.82430876 4.16915176 8.8719754 7.53388806 10 11 C10.36609375 11.85078125 10.7321875 12.7015625 11.109375 13.578125 C12 16 12 16 12 20 C9.125 20.1875 9.125 20.1875 6 20 C4 17 4 17 4.3125 14.9375 C5 13 5 13 6 11 C5.34 11 4.68 11 4 11 C3.33333333 9.66666667 2.66666667 8.33333333 2 7 C1.62875 6.319375 1.2575 5.63875 0.875 4.9375 C0 3 0 3 0 0 Z " fill="#F620AF" transform="translate(101,92)"/>
<path d="M0 0 C0.66 0 1.32 0 2 0 C2.83986084 1.93467942 3.67168027 3.87285129 4.5 5.8125 C4.9640625 6.89144531 5.428125 7.97039062 5.90625 9.08203125 C7 12 7 12 7 15 C3.04 15 -0.92 15 -5 15 C-3.33333333 10 -1.66666667 5 0 0 Z " fill="#FB0F39" transform="translate(45,85)"/>
<path d="M0 0 C0.66 1.98 1.32 3.96 2 6 C-1.63 7.98 -5.26 9.96 -9 12 C-9.66 11.34 -10.32 10.68 -11 10 C-10.95199619 7.11977114 -10.26411008 4.58294353 -9 2 C-5.75412197 0.34253037 -3.62262066 0 0 0 Z " fill="#FD0E45" transform="translate(57,109)"/>
<path d="M0 0 C3.8263442 1.55888097 6.14637496 4.07127956 9 7 C9.66 7.33 10.32 7.66 11 8 C11 12.95 11 17.9 11 23 C8.7763349 20.0351132 7.39321512 17.97457594 5.95703125 14.70703125 C5.60576172 13.91232422 5.25449219 13.11761719 4.89257812 12.29882812 C4.53615234 11.47833984 4.17972656 10.65785156 3.8125 9.8125 C3.44447266 8.98041016 3.07644531 8.14832031 2.69726562 7.29101562 C0 1.15085807 0 1.15085807 0 0 Z " fill="#FA0E61" transform="translate(58,83)"/>
<path d="M0 0 C0.66 0.33 1.32 0.66 2 1 C2 2.32 2 3.64 2 5 C1.30132812 5.04898438 0.60265625 5.09796875 -0.1171875 5.1484375 C-1.02726563 5.22320312 -1.93734375 5.29796875 -2.875 5.375 C-4.23238281 5.47941406 -4.23238281 5.47941406 -5.6171875 5.5859375 C-8.17941903 5.79568132 -8.17941903 5.79568132 -10 8 C-12.625 8.125 -12.625 8.125 -15 8 C-14.69025617 5.10905762 -13.95829554 3.95308249 -12 1.75 C-7.97418431 -0.59839248 -4.56606865 -0.54721058 0 0 Z " fill="#A80EF4" transform="translate(214,86)"/>
<path d="M0 0 C0.33 0.33 0.66 0.66 1 1 C2.51928038 1.07179964 4.04167482 1.08392007 5.5625 1.0625 C6.38878906 1.05347656 7.21507812 1.04445313 8.06640625 1.03515625 C9.02353516 1.01775391 9.02353516 1.01775391 10 1 C11.24546405 3.49092811 10.7767578 4.41080733 10 7 C0.33012448 7.68797533 0.33012448 7.68797533 -3.625 5.1875 C-4.40875 4.465625 -5.1925 3.74375 -6 3 C-6 2.01 -6 1.02 -6 0 C-3.49749232 -1.25125384 -2.59701335 -0.83774624 0 0 Z " fill="#E22DDF" transform="translate(146,116)"/>
<path d="M0 0 C3.52069985 0.58678331 5.71299843 1.35649921 9 3 C9 8.28 9 13.56 9 19 C8.67 19 8.34 19 8 19 C8 16.69 8 14.38 8 12 C6.68 11.67 5.36 11.34 4 11 C4 10.01 4 9.02 4 8 C3.01 7.67 2.02 7.34 1 7 C-0.25 5.125 -0.25 5.125 -1 3 C-0.67 2.01 -0.34 1.02 0 0 Z " fill="#F50A97" transform="translate(61,76)"/>
<path d="M0 0 C1.98 0.66 3.96 1.32 6 2 C5.69078116 3.45903258 5.37751201 4.91720722 5.0625 6.375 C4.88847656 7.18710938 4.71445313 7.99921875 4.53515625 8.8359375 C4 11 4 11 3 13 C0.69 13 -1.62 13 -4 13 C-3.52140759 11.39566191 -3.04210442 9.79153584 -2.5625 8.1875 C-2.29566406 7.29417969 -2.02882813 6.40085937 -1.75390625 5.48046875 C-1.19612127 3.64526945 -0.60655425 1.81966274 0 0 Z " fill="#FB278B" transform="translate(85,100)"/>
<path d="M0 0 C2.03529587 2.03529587 2.6384272 3.23417382 3.625 5.875 C3.88539062 6.55304688 4.14578125 7.23109375 4.4140625 7.9296875 C5 10 5 10 5 14 C2.03 14 -0.94 14 -4 14 C-2 4.42857143 -2 4.42857143 0 0 Z " fill="#FBEDF8" transform="translate(97,85)"/>
<path d="M0 0 C0 3.86474861 -1.34492416 6.20494458 -3 9.6875 C-3.556875 10.86699219 -4.11375 12.04648438 -4.6875 13.26171875 C-5.120625 14.16535156 -5.55375 15.06898437 -6 16 C-6.66 16 -7.32 16 -8 16 C-7.979375 15.195625 -7.95875 14.39125 -7.9375 13.5625 C-7.70366379 11.06645115 -7.70366379 11.06645115 -9 10 C-9.04080783 8.00041636 -9.04254356 5.99954746 -9 4 C-6.03 2.68 -3.06 1.36 0 0 Z " fill="#F90B1E" transform="translate(39,71)"/>
<path d="M0 0 C0.25 2.8125 0.25 2.8125 0 6 C-1.6875 7.9375 -1.6875 7.9375 -4 9 C-6.75 8.6875 -6.75 8.6875 -9 8 C-9.33 6.35 -9.66 4.7 -10 3 C-6.75540897 0.83693931 -3.93614833 0 0 0 Z " fill="#F8EEFB" transform="translate(214,100)"/>
<path d="M0 0 C2.05078125 0.03255208 4.1015625 0.06510417 6.15234375 0.09765625 C5.16234375 0.59265625 5.16234375 0.59265625 4.15234375 1.09765625 C4.15234375 4.06765625 4.15234375 7.03765625 4.15234375 10.09765625 C-1.59765625 8.34765625 -1.59765625 8.34765625 -3.84765625 6.09765625 C-3.12417691 0.16512563 -3.12417691 0.16512563 0 0 Z " fill="#FC0622" transform="translate(37.84765625,108.90234375)"/>
<path d="M0 0 C-0.66 2.64 -1.32 5.28 -2 8 C-4.31 8.33 -6.62 8.66 -9 9 C-8.12737648 5.72766181 -7.52609096 3.50912029 -5.0625 1.125 C-3 0 -3 0 0 0 Z " fill="#F51DB2" transform="translate(96,88)"/>
<path d="M0 0 C3.63 0.66 7.26 1.32 11 2 C9.375 4 9.375 4 7 6 C3.75 6.25 3.75 6.25 1 6 C0.67 4.02 0.34 2.04 0 0 Z " fill="#A60AF3" transform="translate(203,107)"/>
<path d="M0 0 C-0.33 0.99 -0.66 1.98 -1 3 C-0.34 3 0.32 3 1 3 C0.67 3.99 0.34 4.98 0 6 C-0.66 5.34 -1.32 4.68 -2 4 C-3.2684375 3.7525 -3.2684375 3.7525 -4.5625 3.5 C-5.7690625 3.2525 -5.7690625 3.2525 -7 3 C-7.33 2.34 -7.66 1.68 -8 1 C-10.01669827 -0.13350534 -10.01669827 -0.13350534 -12 -1 C-10.56465159 -1.2226746 -9.12654475 -1.42761906 -7.6875 -1.625 C-6.48673828 -1.79902344 -6.48673828 -1.79902344 -5.26171875 -1.9765625 C-3 -2 -3 -2 0 0 Z " fill="#F3009A" transform="translate(106,100)"/>
<path d="M0 0 C2.1640625 0.0234375 2.1640625 0.0234375 4.625 0.375 C5.85089844 0.54128906 5.85089844 0.54128906 7.1015625 0.7109375 C7.72804687 0.80632812 8.35453125 0.90171875 9 1 C5.58983503 3.86453858 2.09305456 5.34703566 -2 7 C-2.125 4.625 -2.125 4.625 -2 2 C-1.34 1.34 -0.68 0.68 0 0 Z " fill="#AB10F7" transform="translate(205,97)"/>
<path d="M0 0 C3.8263442 1.55888097 6.14637496 4.07127956 9 7 C9.66 7.33 10.32 7.66 11 8 C10.67 9.32 10.34 10.64 10 12 C8 10.625 8 10.625 6 9 C6 8.34 6 7.68 6 7 C5.38125 6.95875 4.7625 6.9175 4.125 6.875 C3.42375 6.58625 2.7225 6.2975 2 6 C0.75 2.9375 0.75 2.9375 0 0 Z " fill="#FD0772" transform="translate(58,83)"/>
<path d="M0 0 C5 2 5 2 6.3125 4.3125 C7.00035836 7.00140087 7.15782426 9.23807537 7 12 C6.34 12 5.68 12 5 12 C3.35 8.04 1.7 4.08 0 0 Z " fill="#FA177C" transform="translate(52,71)"/>
<path d="M0 0 C1.98 0 3.96 0 6 0 C6.33 1.32 6.66 2.64 7 4 C4.03 3.505 4.03 3.505 1 3 C0.67 3.66 0.34 4.32 0 5 C0 3.35 0 1.7 0 0 Z " fill="#F32FBD" transform="translate(100,89)"/>
<path d="M0 0 C0.66 0.99 1.32 1.98 2 3 C1.34 4.32 0.68 5.64 0 7 C-1.32 7 -2.64 7 -4 7 C-3.43628586 3.73045798 -2.50037734 2.17424117 0 0 Z " fill="#B51BF1" transform="translate(203,87)"/>
<path d="M0 0 C3.875 0.875 3.875 0.875 5 2 C5.07179964 3.51928038 5.08392007 5.04167482 5.0625 6.5625 C5.05347656 7.38878906 5.04445313 8.21507813 5.03515625 9.06640625 C5.01775391 10.02353516 5.01775391 10.02353516 5 11 C4.67 11 4.34 11 4 11 C4 8.69 4 6.38 4 4 C2.68 3.67 1.36 3.34 0 3 C0 2.01 0 1.02 0 0 Z " fill="#F63098" transform="translate(65,84)"/>
<path d="M0 0 C2.67927341 4.01891012 2.15601248 6.24161923 2 11 C1.67 11 1.34 11 1 11 C1 9.35 1 7.7 1 6 C0.01 5.67 -0.98 5.34 -2 5 C-1.34 3.35 -0.68 1.7 0 0 Z " fill="#DB46E5" transform="translate(156,103)"/>
<path d="M0 0 C2.475 0.99 2.475 0.99 5 2 C5 3.32 5 4.64 5 6 C2.525 5.01 2.525 5.01 0 4 C0 2.68 0 1.36 0 0 Z " fill="#F81CAE" transform="translate(65,77)"/>
</svg>
