<?xml version="1.0" encoding="UTF-8"?>
<svg version="1.1" xmlns="http://www.w3.org/2000/svg" width="500" height="500">
<path d="M0 0 C165 0 330 0 500 0 C500 165 500 330 500 500 C335 500 170 500 0 500 C0 335 0 170 0 0 Z " fill="#FEFEFE" transform="translate(0,0)"/>
<path d="M0 0 C1.30420898 -0.01836914 1.30420898 -0.01836914 2.63476562 -0.03710938 C20.25149733 -0.07652041 34.16490675 7.47778858 46.71875 19.34375 C57.59498913 30.91054399 64.1134479 45.25016576 70.5 59.5625 C71.27698637 61.28170611 72.05497584 63.00045923 72.83398438 64.71875 C74.71338416 68.86988856 76.57925591 73.02685083 78.4375 77.1875 C78.41864746 76.03064697 78.39979492 74.87379395 78.38037109 73.68188477 C78.36512111 72.14339621 78.35033446 70.60490302 78.3359375 69.06640625 C78.32232178 68.30638306 78.30870605 67.54635986 78.29467773 66.76330566 C78.21597849 55.5305021 82.57787385 47.23294938 90.28515625 39.28125 C98.4372127 31.63160657 106.99888844 28.99111111 118 29 C118.82540283 28.99935547 119.65080566 28.99871094 120.5012207 28.99804688 C129.5700906 29.07342805 138.43677736 30.1047063 147.4375 31.1875 C147.4375 40.4275 147.4375 49.6675 147.4375 59.1875 C146.7775 59.1875 146.1175 59.1875 145.4375 59.1875 C145.210625 58.0325 144.98375 56.8775 144.75 55.6875 C143.23641654 49.86998533 141.18474064 44.96047958 135.9921875 41.609375 C127.32015151 37.21014975 119.32190287 35.764467 109.640625 37.765625 C102.81944548 40.09584161 98.47874866 44.29738008 94.4375 50.1875 C91.38931262 56.791906 91.35285038 65.38523451 92.94921875 72.453125 C97.20067398 82.65661755 109.24020863 89.69150555 117.79858398 96.13696289 C123.71614226 100.59633383 129.47407689 105.22658192 135.17260742 109.9621582 C135.79111572 110.47222412 136.40962402 110.98229004 137.046875 111.5078125 C137.58280273 111.95398926 138.11873047 112.40016602 138.67089844 112.85986328 C140.82946529 114.48206982 143.10576125 115.82955825 145.4375 117.1875 C145.83316162 116.29595215 146.22882324 115.4044043 146.63647461 114.48583984 C155.24147521 95.09886206 163.85361284 75.7150094 172.53930664 56.36401367 C173.23589645 54.8117116 173.93243087 53.25938467 174.62890625 51.70703125 C174.96189224 50.96488876 175.29487823 50.22274628 175.63795471 49.45811462 C177.58493505 45.11183441 179.5053221 40.75511407 181.40234375 36.38671875 C181.8207251 35.43087891 182.23910645 34.47503906 182.67016602 33.49023438 C183.40217428 31.8143907 184.12608698 30.13497348 184.83959961 28.45117188 C185.62618007 26.65961921 186.52053744 24.9159529 187.4375 23.1875 C188.4275 22.8575 189.4175 22.5275 190.4375 22.1875 C192.54568479 33.02745723 194.38499133 43.88993072 196.06689453 54.80371094 C196.42100348 57.08139195 196.78452949 59.35730865 197.15234375 61.6328125 C198.3144517 68.84450889 199.427662 76.05921769 200.4453125 83.29296875 C200.62006104 84.53506104 200.79480957 85.77715332 200.97485352 87.05688477 C201.31732826 89.50611258 201.65651576 91.95580298 201.99194336 94.40600586 C202.78493767 100.08987014 203.68822743 105.67348668 205.00219727 111.26025391 C205.62293811 114.00850306 206.00577755 116.77047498 206.375 119.5625 C208.33021337 133.69675235 210.66931294 147.76907685 213.0423584 161.83828735 C213.30276334 163.3864579 213.56135234 164.93493515 213.81799316 166.48373413 C215.74656056 178.101199 217.86250257 189.43444687 222.6875 200.25 C223.14310303 201.27395874 223.14310303 201.27395874 223.60791016 202.31860352 C230.99505511 218.4244082 242.88430958 229.68792479 259.27734375 236.33984375 C263.42975842 237.45365584 267.54112459 237.89694354 271.8125 238.3125 C272.64394531 238.39886719 273.47539062 238.48523438 274.33203125 238.57421875 C276.36657147 238.78468843 278.4019597 238.98693314 280.4375 239.1875 C280.4375 240.1775 280.4375 241.1675 280.4375 242.1875 C258.6844998 242.66245634 240.58885713 242.94516195 223.1875 227.9375 C203.55555939 209.03619796 196.66928021 186.22627926 193.43548584 159.78366089 C191.73063462 145.8715454 189.88658612 131.98685513 187.8125 118.125 C187.70742126 117.42185669 187.60234253 116.71871338 187.49407959 115.9942627 C187.18490323 113.92585544 186.87565783 111.85745851 186.56640625 109.7890625 C185.58138082 103.19867551 184.64379069 96.60334421 183.75 90 C183.57404297 88.7020752 183.57404297 88.7020752 183.39453125 87.37792969 C182.8641541 83.43864593 182.34751946 79.49795916 181.84765625 75.5546875 C181.75637451 74.8433667 181.66509277 74.1320459 181.57104492 73.39916992 C181.33241851 71.53094368 181.09954074 69.66198556 180.8671875 67.79296875 C180.71035169 65.26614416 180.71035169 65.26614416 179.4375 64.1875 C176.85934872 70.01820048 174.28169012 75.8491186 171.7043457 81.68017578 C170.83075648 83.65646081 169.95706176 85.63269921 169.08325195 87.60888672 C168.66197021 88.56166504 168.24068848 89.51444336 167.80664062 90.49609375 C167.38734283 91.44387695 166.96804504 92.39166016 166.53604126 93.36816406 C165.69852183 95.26490343 164.86336731 97.16268884 164.03060913 99.06152344 C162.1287695 103.39419873 160.20533597 107.70984673 158.18408203 111.98828125 C157.84526505 112.7191394 157.50644806 113.44999756 157.15736389 114.20300293 C156.5342882 115.54354332 155.89770329 116.87792631 155.24485779 118.20422363 C153.87088997 121.19394655 153.32555076 122.75798732 154.16845703 125.99194336 C155.51132136 128.31521748 156.99049299 130.22520147 158.75 132.25 C169.01128518 145.03911744 169.72836746 160.47712205 168.4375 176.1875 C166.33007632 188.47237508 157.33278548 199.06216552 147.4375 206.1875 C136.98964979 212.5887705 126.19518712 214.74244016 114.0625 214.625 C112.96413818 214.61742676 111.86577637 214.60985352 110.73413086 214.60205078 C98.32785649 214.35000665 88.67581691 211.38688186 78.4375 204.1875 C77.46683594 203.51074219 77.46683594 203.51074219 76.4765625 202.8203125 C71.34682927 198.85540953 68.35089523 193.91353905 65.4375 188.1875 C65.02113281 187.41148437 64.60476562 186.63546875 64.17578125 185.8359375 C59.29288728 175.04217188 59.53354514 160.12591107 63.4375 149.0625 C66.22775284 142.97323028 69.78391649 137.0353683 74.4375 132.1875 C76.68359375 131.390625 76.68359375 131.390625 78.4375 131.1875 C76.89894168 135.28006514 74.96698631 139.06771679 72.9375 142.9375 C67.50407416 153.67912548 65.29878906 164.69949097 68.3125 176.66015625 C72.96657879 189.74975284 80.25628156 197.32198575 92.734375 203.28515625 C104.6594001 207.70563969 120.06573504 206.37596342 131.4375 201.1875 C142.6935998 195.00368996 147.98009717 186.98208745 151.51953125 174.859375 C153.97059827 165.0551069 151.70614843 157.58784658 148.4375 148.1875 C147.76945132 146.1879612 147.10236945 144.18809817 146.4375 142.1875 C143.94885231 143.43182385 143.76252049 144.27185219 142.65332031 146.77905273 C142.31246399 147.54172958 141.97160767 148.30440643 141.62042236 149.0901947 C141.25583923 149.92539139 140.8912561 150.76058807 140.515625 151.62109375 C139.94192169 152.9199929 139.94192169 152.9199929 139.35662842 154.24513245 C138.54306637 156.09240062 137.73288715 157.94116167 136.92578125 159.79125977 C135.7163344 162.55901401 134.49188905 165.31974186 133.265625 168.08007812 C128.33659459 179.27009498 124.06371184 190.50991424 120.4375 202.1875 C119.4475 202.1875 118.4575 202.1875 117.4375 202.1875 C99.41071744 163.407563 99.41071744 163.407563 90.9375 144.6875 C84.83371749 131.20275061 78.62528586 117.76801029 72.39120483 104.3430481 C66.34367599 91.31917662 60.34680373 78.27478121 54.4375 65.1875 C52.5801368 84.9613014 50.72751589 104.73553889 48.89632797 124.5117836 C48.56894228 128.04732338 48.24095208 131.58280491 47.91162109 135.11816406 C47.58265138 138.64979535 47.25515621 142.18156066 46.92865372 145.71342087 C46.7496192 147.64632775 46.56916109 149.5791026 46.38864136 151.51187134 C44.87838056 167.85810624 44.87838056 167.85810624 44.0625 184.25 C44.01351562 185.45785156 43.96453125 186.66570312 43.9140625 187.91015625 C44.59350438 192.16427371 46.08430879 193.57249333 49.4375 196.1875 C53.12191504 197.07277109 53.12191504 197.07277109 56.4375 197.1875 C56.4375 197.8475 56.4375 198.5075 56.4375 199.1875 C40.5975 199.1875 24.7575 199.1875 8.4375 199.1875 C8.4375 198.1975 8.4375 197.2075 8.4375 196.1875 C9.0665625 196.17332031 9.695625 196.15914062 10.34375 196.14453125 C16.54950232 195.79872879 21.96358123 194.79573966 26.4375 190.1875 C29.28290102 184.57263055 30.23145473 179.32046256 30.9765625 173.10546875 C31.09971832 172.1419902 31.22287415 171.17851166 31.34976196 170.18583679 C32.51740124 160.91098536 33.53732473 151.61905814 34.51522827 142.32254028 C35.03733703 137.36521386 35.57146608 132.40918219 36.10546875 127.453125 C36.21435928 126.44145767 36.32324982 125.42979034 36.43544006 124.38746643 C37.61172002 113.50210086 38.85959481 102.62531743 40.125 91.75 C40.22746033 90.86510895 40.32992065 89.9802179 40.43548584 89.06851196 C41.54347236 79.50880072 42.70174286 69.96112003 44.02026367 60.42797852 C45.62091062 47.99650578 44.00493579 41.36796491 36.4375 31.1875 C35.75558594 30.26582031 35.07367188 29.34414062 34.37109375 28.39453125 C32.46082495 25.92351819 30.48865717 23.54237821 28.4375 21.1875 C27.87417969 20.54039062 27.31085938 19.89328125 26.73046875 19.2265625 C16.05170856 7.77252932 3.55274695 4.81103081 -11.5625 4.1875 C-11.5625 3.1975 -11.5625 2.2075 -11.5625 1.1875 C-8.01019552 -0.58865224 -3.91187386 0.00281227 0 0 Z " fill="#0599B3" transform="translate(133.5625,116.8125)"/>
<path d="M0 0 C1.30420898 -0.01836914 1.30420898 -0.01836914 2.63476562 -0.03710938 C20.25149733 -0.07652041 34.16490675 7.47778858 46.71875 19.34375 C57.1447604 30.43172932 63.57460905 44.07881724 69.6875 57.8125 C70.43189331 59.46181065 71.1775193 61.11056544 71.92431641 62.75878906 C73.41438071 66.04922197 74.89991868 69.3416326 76.38183594 72.63574219 C79.14161882 78.75991682 81.97259171 84.8500849 84.8125 90.9375 C85.84791233 93.16394343 86.88305906 95.39051039 87.91796875 97.6171875 C88.46630371 98.79635742 89.01463867 99.97552734 89.57958984 101.19042969 C96.54903095 116.18166272 103.50164841 131.18069787 110.4375 146.1875 C110.74913086 146.86145813 111.06076172 147.53541626 111.38183594 148.22979736 C113.13622058 152.02516319 114.88352371 155.82369551 116.625 159.625 C117.02871826 160.49946777 117.43243652 161.37393555 117.84838867 162.27490234 C120.4375 167.95428145 120.4375 167.95428145 120.4375 170.1875 C121.0975 170.1875 121.7575 170.1875 122.4375 170.1875 C122.70481934 169.3404248 122.97213867 168.49334961 123.24755859 167.62060547 C124.48071747 164.06281308 125.92771949 160.6895627 127.4765625 157.2578125 C127.76228119 156.62261688 128.04799988 155.98742126 128.34237671 155.33297729 C129.24637107 153.32491538 130.15436336 151.31869146 131.0625 149.3125 C131.6799537 147.94282831 132.29714381 146.57303775 132.9140625 145.203125 C134.41883037 141.86320388 135.92718672 138.52491779 137.4375 135.1875 C140.4375 135.1875 140.4375 135.1875 142.6875 137.3125 C144.4375 140.1875 144.4375 140.1875 144.2722168 142.85058594 C143.2393574 146.97960676 141.63069222 150.60747667 139.83203125 154.453125 C139.08782147 156.08330176 138.34368331 157.71351123 137.59960938 159.34375 C136.43535649 161.87175876 135.26813112 164.39835492 134.09838867 166.92382812 C128.76037636 178.48056188 124.19880685 190.02163679 120.4375 202.1875 C119.4475 202.1875 118.4575 202.1875 117.4375 202.1875 C99.41071744 163.407563 99.41071744 163.407563 90.9375 144.6875 C84.83371749 131.20275061 78.62528586 117.76801029 72.39120483 104.3430481 C66.34367599 91.31917662 60.34680373 78.27478121 54.4375 65.1875 C52.5801368 84.9613014 50.72751589 104.73553889 48.89632797 124.5117836 C48.56894228 128.04732338 48.24095208 131.58280491 47.91162109 135.11816406 C47.58265138 138.64979535 47.25515621 142.18156066 46.92865372 145.71342087 C46.7496192 147.64632775 46.56916109 149.5791026 46.38864136 151.51187134 C44.87838056 167.85810624 44.87838056 167.85810624 44.0625 184.25 C44.01351562 185.45785156 43.96453125 186.66570312 43.9140625 187.91015625 C44.59350438 192.16427371 46.08430879 193.57249333 49.4375 196.1875 C53.12191504 197.07277109 53.12191504 197.07277109 56.4375 197.1875 C56.4375 197.8475 56.4375 198.5075 56.4375 199.1875 C40.5975 199.1875 24.7575 199.1875 8.4375 199.1875 C8.4375 198.1975 8.4375 197.2075 8.4375 196.1875 C9.0665625 196.17332031 9.695625 196.15914062 10.34375 196.14453125 C16.54950232 195.79872879 21.96358123 194.79573966 26.4375 190.1875 C29.28290102 184.57263055 30.23145473 179.32046256 30.9765625 173.10546875 C31.09971832 172.1419902 31.22287415 171.17851166 31.34976196 170.18583679 C32.51740124 160.91098536 33.53732473 151.61905814 34.51522827 142.32254028 C35.03733703 137.36521386 35.57146608 132.40918219 36.10546875 127.453125 C36.21435928 126.44145767 36.32324982 125.42979034 36.43544006 124.38746643 C37.61172002 113.50210086 38.85959481 102.62531743 40.125 91.75 C40.22746033 90.86510895 40.32992065 89.9802179 40.43548584 89.06851196 C41.54347236 79.50880072 42.70174286 69.96112003 44.02026367 60.42797852 C45.62091062 47.99650578 44.00493579 41.36796491 36.4375 31.1875 C35.75558594 30.26582031 35.07367188 29.34414062 34.37109375 28.39453125 C32.46082495 25.92351819 30.48865717 23.54237821 28.4375 21.1875 C27.87417969 20.54039062 27.31085938 19.89328125 26.73046875 19.2265625 C16.05170856 7.77252932 3.55274695 4.81103081 -11.5625 4.1875 C-11.5625 3.1975 -11.5625 2.2075 -11.5625 1.1875 C-8.01019552 -0.58865224 -3.91187386 0.00281227 0 0 Z " fill="#050505" transform="translate(133.5625,116.8125)"/>
<path d="M0 0 C0.66 0 1.32 0 2 0 C4.10818479 10.83995723 5.94749133 21.70243072 7.62939453 32.61621094 C7.98350348 34.89389195 8.34702949 37.16980865 8.71484375 39.4453125 C9.8769517 46.65700889 10.990162 53.87171769 12.0078125 61.10546875 C12.18256104 62.34756104 12.35730957 63.58965332 12.53735352 64.86938477 C12.87982826 67.31861258 13.21901576 69.76830298 13.55444336 72.21850586 C14.34743767 77.90237014 15.25072743 83.48598668 16.56469727 89.07275391 C17.18543811 91.82100306 17.56827755 94.58297498 17.9375 97.375 C19.89271337 111.50925235 22.23181294 125.58157685 24.6048584 139.65078735 C24.86526334 141.1989579 25.12385234 142.74743515 25.38049316 144.29623413 C27.30906056 155.913699 29.42500257 167.24694687 34.25 178.0625 C34.55373535 178.74513916 34.8574707 179.42777832 35.17041016 180.13110352 C42.55755511 196.2369082 54.44680958 207.50042479 70.83984375 214.15234375 C74.99225842 215.26615584 79.10362459 215.70944354 83.375 216.125 C84.62216797 216.25455078 84.62216797 216.25455078 85.89453125 216.38671875 C87.92907147 216.59718843 89.9644597 216.79943314 92 217 C92 217.99 92 218.98 92 220 C70.2469998 220.47495634 52.15135713 220.75766195 34.75 205.75 C15.11805939 186.84869796 8.23178021 164.03877926 4.99798584 137.59616089 C3.29313462 123.6840454 1.44908612 109.79935513 -0.625 95.9375 C-0.7826181 94.88278503 -0.7826181 94.88278503 -0.94342041 93.8067627 C-1.25259677 91.73835544 -1.56184217 89.66995851 -1.87109375 87.6015625 C-2.85611918 81.01117551 -3.79370931 74.41584421 -4.6875 67.8125 C-4.80480469 66.9472168 -4.92210937 66.08193359 -5.04296875 65.19042969 C-5.5733459 61.25114593 -6.08998054 57.31045916 -6.58984375 53.3671875 C-6.68112549 52.6558667 -6.77240723 51.9445459 -6.86645508 51.21166992 C-7.10508149 49.34344368 -7.33795926 47.47448556 -7.5703125 45.60546875 C-7.72714831 43.07864416 -7.72714831 43.07864416 -9 42 C-11.57815128 47.83070048 -14.15580988 53.6616186 -16.7331543 59.49267578 C-17.60674352 61.46896081 -18.48043824 63.44519921 -19.35424805 65.42138672 C-24.59347335 77.27051246 -29.81921894 89.12519177 -35 101 C-38.90838866 101 -40.11594107 99.49432124 -43 97 C-41.08979325 90.91633217 -38.8452133 85.11544392 -36.19140625 79.3203125 C-35.82852509 78.51812286 -35.46564392 77.71593323 -35.09176636 76.88943481 C-33.91928178 74.29948425 -32.74086375 71.71228018 -31.5625 69.125 C-30.33655912 66.42008055 -29.11220537 63.71444624 -27.88789368 61.00878906 C-27.07337425 59.20907739 -26.25834295 57.40959729 -25.4427948 55.61035156 C-22.0722586 48.17240145 -18.74441408 40.71644359 -15.4375 33.25 C-14.50276142 31.14315939 -13.56787121 29.03638605 -12.6328125 26.9296875 C-12.19614258 25.94581055 -11.75947266 24.96193359 -11.30957031 23.94824219 C-9.15050083 19.08751827 -6.98563293 14.22945272 -4.8125 9.375 C-4.43730225 8.53227539 -4.06210449 7.68955078 -3.67553711 6.82128906 C-1.11540789 1.11540789 -1.11540789 1.11540789 0 0 Z " fill="#050606" transform="translate(322,139)"/>
<path d="M0 0 C0.6703125 0.69738281 1.340625 1.39476562 2.03125 2.11328125 C5.31534656 5.39391843 8.88546029 8.28137014 12.5 11.1875 C13.20632568 11.75847412 13.91265137 12.32944824 14.64038086 12.91772461 C19.93087208 17.17883076 25.29497233 21.33216716 30.6953125 25.453125 C34.48248438 28.35639266 38.21208882 31.33061441 41.9375 34.3125 C42.55246338 34.80435791 43.16742676 35.29621582 43.80102539 35.80297852 C47.56983991 38.82698023 51.2967487 41.89605349 55 45 C53.59978929 49.43252755 51.90600079 53.6226525 49.99609375 57.859375 C49.71274673 58.48982727 49.42939972 59.12027954 49.13746643 59.76983643 C48.24017919 61.76445402 47.33885821 63.75721929 46.4375 65.75 C45.82851982 67.10274927 45.21979344 68.45561282 44.61132812 69.80859375 C40.22623276 79.54753448 40.22623276 79.54753448 39 82 C38.34 82 37.68 82 37 82 C28.60195702 64.20118951 20.29449434 46.36613139 12.18920898 28.43188477 C11.75208839 27.46535225 11.75208839 27.46535225 11.30613708 26.47929382 C10.73337854 25.21283007 10.16107198 23.9461618 9.58924866 22.67927551 C8.08868713 19.36451393 6.56397918 16.06298498 5.0078125 12.77392578 C4.51970093 11.74030663 4.51970093 11.74030663 4.02172852 10.68580627 C3.39547175 9.36330906 2.76589653 8.04237675 2.13256836 6.72325134 C0 2.22007459 0 2.22007459 0 0 Z " fill="#FBFBFC" transform="translate(217,205)"/>
<path d="M0 0 C3.12578143 1.6720747 5.39281175 3.7856235 7 7 C7.49992739 12.08942479 7.81692667 16.51742937 5.3125 21.0625 C1.74910294 24.04804889 -0.82513693 24.87183312 -5.4375 25.375 C-9.69199062 24.92715888 -11.7083785 23.6792268 -15 21 C-17.971705 16.5424425 -17.75294249 12.22586818 -17 7 C-13.25896304 -0.1900227 -7.47181151 -1.05269014 0 0 Z " fill="#0498B3" transform="translate(255,110)"/>
<path d="M0 0 C0.7734375 -0.00773438 1.546875 -0.01546875 2.34375 -0.0234375 C5.04613385 0.47591604 5.9175021 1.14263619 7.5 3.375 C8.11371932 6.42700961 7.99696302 9.3075386 7.5 12.375 C6 14.4375 6 14.4375 3.5 15.375 C0.05017239 15.85394991 -3.26677891 16.26426147 -6.22265625 14.1328125 C-7.83660008 11.91178888 -7.9022573 10.60073005 -7.875 7.875 C-7.88273438 7.1015625 -7.89046875 6.328125 -7.8984375 5.53125 C-7.04925027 0.93564854 -4.36327591 -0.04363276 0 0 Z " fill="#0398B3" transform="translate(198.5,233.625)"/>
</svg>
